<mxfile host="app.diagrams.net" modified="2023-11-02T15:08:02.651Z" agent="Mozilla/5.0 (Windows NT 10.0; Win64; x64) AppleWebKit/537.36 (KHTML, like Gecko) Chrome/118.0.0.0 Safari/537.36" etag="qghQdlZixbeILPqaHtmN" version="22.0.8" type="github">
  <diagram name="Pagina-1" id="kObJYDHDt_bQQeQ_TMJU">
    <mxGraphModel dx="2261" dy="1941" grid="1" gridSize="10" guides="1" tooltips="1" connect="1" arrows="1" fold="1" page="1" pageScale="1" pageWidth="827" pageHeight="1169" math="0" shadow="0">
      <root>
        <mxCell id="0" />
        <mxCell id="1" parent="0" />
        <mxCell id="zRS0R8RgPTU2k40P8IXV-1" value="" style="rounded=1;whiteSpace=wrap;html=1;fillColor=#dae8fc;strokeColor=#6c8ebf;" vertex="1" parent="1">
          <mxGeometry x="-320" y="-700" width="1260" height="840" as="geometry" />
        </mxCell>
        <mxCell id="zRS0R8RgPTU2k40P8IXV-6" value="DMZ" style="rounded=1;whiteSpace=wrap;html=1;fillColor=#d5e8d4;strokeColor=default;" vertex="1" parent="1">
          <mxGeometry x="350" y="-530" width="550" height="250" as="geometry" />
        </mxCell>
        <mxCell id="zRS0R8RgPTU2k40P8IXV-48" style="edgeStyle=orthogonalEdgeStyle;rounded=0;orthogonalLoop=1;jettySize=auto;html=1;" edge="1" parent="1" source="zRS0R8RgPTU2k40P8IXV-7" target="zRS0R8RgPTU2k40P8IXV-8">
          <mxGeometry relative="1" as="geometry" />
        </mxCell>
        <mxCell id="zRS0R8RgPTU2k40P8IXV-7" value="" style="image;aspect=fixed;perimeter=ellipsePerimeter;html=1;align=center;shadow=0;dashed=0;spacingTop=3;image=img/lib/active_directory/internet_globe.svg;" vertex="1" parent="1">
          <mxGeometry x="350" y="-664" width="80" height="80" as="geometry" />
        </mxCell>
        <mxCell id="zRS0R8RgPTU2k40P8IXV-14" value="" style="edgeStyle=orthogonalEdgeStyle;rounded=0;orthogonalLoop=1;jettySize=auto;html=1;" edge="1" parent="1" source="zRS0R8RgPTU2k40P8IXV-8">
          <mxGeometry relative="1" as="geometry">
            <mxPoint x="450" y="-460" as="targetPoint" />
          </mxGeometry>
        </mxCell>
        <mxCell id="zRS0R8RgPTU2k40P8IXV-49" style="edgeStyle=orthogonalEdgeStyle;rounded=0;orthogonalLoop=1;jettySize=auto;html=1;" edge="1" parent="1" source="zRS0R8RgPTU2k40P8IXV-8" target="zRS0R8RgPTU2k40P8IXV-10">
          <mxGeometry relative="1" as="geometry" />
        </mxCell>
        <mxCell id="zRS0R8RgPTU2k40P8IXV-8" value="" style="image;html=1;image=img/lib/clip_art/networking/Firewall-page1_128x128.png" vertex="1" parent="1">
          <mxGeometry x="360" y="-500" width="80" height="80" as="geometry" />
        </mxCell>
        <mxCell id="zRS0R8RgPTU2k40P8IXV-10" value="" style="image;html=1;image=img/lib/clip_art/networking/Wireless_Router_128x128.png" vertex="1" parent="1">
          <mxGeometry x="360" y="-400" width="80" height="80" as="geometry" />
        </mxCell>
        <mxCell id="zRS0R8RgPTU2k40P8IXV-11" value="" style="image;aspect=fixed;perimeter=ellipsePerimeter;html=1;align=center;shadow=0;dashed=0;spacingTop=3;image=img/lib/active_directory/web_server.svg;" vertex="1" parent="1">
          <mxGeometry x="795" y="-520" width="72" height="90" as="geometry" />
        </mxCell>
        <mxCell id="zRS0R8RgPTU2k40P8IXV-12" value="" style="image;html=1;image=img/lib/clip_art/computers/Database_128x128.png" vertex="1" parent="1">
          <mxGeometry x="787" y="-370" width="80" height="80" as="geometry" />
        </mxCell>
        <mxCell id="zRS0R8RgPTU2k40P8IXV-19" value="Database" style="rounded=1;whiteSpace=wrap;html=1;fillColor=#d5e8d4;strokeColor=#82b366;" vertex="1" parent="1">
          <mxGeometry x="667" y="-370" width="120" height="60" as="geometry" />
        </mxCell>
        <mxCell id="zRS0R8RgPTU2k40P8IXV-20" value="Webserver&lt;br&gt;" style="rounded=1;whiteSpace=wrap;html=1;fillColor=#d5e8d4;strokeColor=#82b366;" vertex="1" parent="1">
          <mxGeometry x="667" y="-505" width="120" height="60" as="geometry" />
        </mxCell>
        <mxCell id="zRS0R8RgPTU2k40P8IXV-21" value="Internet&lt;br&gt;" style="rounded=1;whiteSpace=wrap;html=1;fillColor=#dae8fc;strokeColor=#6c8ebf;" vertex="1" parent="1">
          <mxGeometry x="440" y="-654" width="120" height="60" as="geometry" />
        </mxCell>
        <mxCell id="zRS0R8RgPTU2k40P8IXV-22" value="Firewall&lt;br&gt;" style="rounded=1;whiteSpace=wrap;html=1;fillColor=#d5e8d4;strokeColor=#82b366;" vertex="1" parent="1">
          <mxGeometry x="450" y="-490" width="120" height="60" as="geometry" />
        </mxCell>
        <mxCell id="zRS0R8RgPTU2k40P8IXV-23" value="Router" style="rounded=1;whiteSpace=wrap;html=1;fillColor=#d5e8d4;strokeColor=#82b366;" vertex="1" parent="1">
          <mxGeometry x="450" y="-380" width="120" height="60" as="geometry" />
        </mxCell>
        <mxCell id="zRS0R8RgPTU2k40P8IXV-26" value="" style="rounded=1;whiteSpace=wrap;html=1;fillColor=#fff2cc;strokeColor=#d6b656;" vertex="1" parent="1">
          <mxGeometry x="-220" y="-280" width="670" height="420" as="geometry" />
        </mxCell>
        <mxCell id="zRS0R8RgPTU2k40P8IXV-43" value="" style="edgeStyle=orthogonalEdgeStyle;rounded=0;orthogonalLoop=1;jettySize=auto;html=1;" edge="1" parent="1" source="zRS0R8RgPTU2k40P8IXV-29" target="zRS0R8RgPTU2k40P8IXV-30">
          <mxGeometry relative="1" as="geometry" />
        </mxCell>
        <mxCell id="zRS0R8RgPTU2k40P8IXV-29" value="" style="image;html=1;image=img/lib/clip_art/networking/Firewall-page1_128x128.png" vertex="1" parent="1">
          <mxGeometry x="360" y="-170" width="80" height="80" as="geometry" />
        </mxCell>
        <mxCell id="zRS0R8RgPTU2k40P8IXV-44" value="" style="edgeStyle=orthogonalEdgeStyle;rounded=0;orthogonalLoop=1;jettySize=auto;html=1;" edge="1" parent="1" source="zRS0R8RgPTU2k40P8IXV-30" target="zRS0R8RgPTU2k40P8IXV-36">
          <mxGeometry relative="1" as="geometry" />
        </mxCell>
        <mxCell id="zRS0R8RgPTU2k40P8IXV-30" value="" style="image;html=1;image=img/lib/clip_art/networking/Switch_128x128.png" vertex="1" parent="1">
          <mxGeometry x="180" y="-150" width="80" height="80" as="geometry" />
        </mxCell>
        <mxCell id="zRS0R8RgPTU2k40P8IXV-46" style="edgeStyle=orthogonalEdgeStyle;rounded=0;orthogonalLoop=1;jettySize=auto;html=1;" edge="1" parent="1" source="zRS0R8RgPTU2k40P8IXV-33" target="zRS0R8RgPTU2k40P8IXV-30">
          <mxGeometry relative="1" as="geometry" />
        </mxCell>
        <mxCell id="zRS0R8RgPTU2k40P8IXV-33" value="" style="image;aspect=fixed;perimeter=ellipsePerimeter;html=1;align=center;shadow=0;dashed=0;spacingTop=3;image=img/lib/active_directory/server_farm.svg;" vertex="1" parent="1">
          <mxGeometry x="270" y="-20" width="50" height="50" as="geometry" />
        </mxCell>
        <mxCell id="zRS0R8RgPTU2k40P8IXV-45" style="edgeStyle=orthogonalEdgeStyle;rounded=0;orthogonalLoop=1;jettySize=auto;html=1;" edge="1" parent="1" source="zRS0R8RgPTU2k40P8IXV-34" target="zRS0R8RgPTU2k40P8IXV-30">
          <mxGeometry relative="1" as="geometry" />
        </mxCell>
        <mxCell id="zRS0R8RgPTU2k40P8IXV-34" value="" style="image;aspect=fixed;perimeter=ellipsePerimeter;html=1;align=center;shadow=0;dashed=0;spacingTop=3;image=img/lib/active_directory/generic_server.svg;" vertex="1" parent="1">
          <mxGeometry x="152" y="-20" width="28.000000000000004" height="50" as="geometry" />
        </mxCell>
        <mxCell id="zRS0R8RgPTU2k40P8IXV-35" value="" style="image;html=1;image=img/lib/clip_art/computers/Laptop_128x128.png" vertex="1" parent="1">
          <mxGeometry x="-160" y="-260" width="60" height="60" as="geometry" />
        </mxCell>
        <mxCell id="zRS0R8RgPTU2k40P8IXV-36" value="" style="image;html=1;image=img/lib/clip_art/computers/Printer_128x128.png" vertex="1" parent="1">
          <mxGeometry x="180" y="-280" width="80" height="80" as="geometry" />
        </mxCell>
        <mxCell id="zRS0R8RgPTU2k40P8IXV-39" value="" style="image;html=1;image=img/lib/clip_art/computers/Laptop_128x128.png" vertex="1" parent="1">
          <mxGeometry x="-150" y="-120" width="70" height="70" as="geometry" />
        </mxCell>
        <mxCell id="zRS0R8RgPTU2k40P8IXV-40" value="" style="image;html=1;image=img/lib/clip_art/computers/Laptop_128x128.png" vertex="1" parent="1">
          <mxGeometry x="-150" y="-40" width="70" height="80" as="geometry" />
        </mxCell>
        <mxCell id="zRS0R8RgPTU2k40P8IXV-41" value="" style="image;html=1;image=img/lib/clip_art/computers/Laptop_128x128.png" vertex="1" parent="1">
          <mxGeometry x="-150" y="-190" width="60" height="70" as="geometry" />
        </mxCell>
        <mxCell id="zRS0R8RgPTU2k40P8IXV-42" value="" style="image;html=1;image=img/lib/clip_art/computers/Laptop_128x128.png" vertex="1" parent="1">
          <mxGeometry x="-140" y="50" width="70" height="80" as="geometry" />
        </mxCell>
        <mxCell id="zRS0R8RgPTU2k40P8IXV-47" style="edgeStyle=orthogonalEdgeStyle;rounded=0;orthogonalLoop=1;jettySize=auto;html=1;entryX=0.904;entryY=-0.002;entryDx=0;entryDy=0;entryPerimeter=0;" edge="1" parent="1" source="zRS0R8RgPTU2k40P8IXV-29" target="zRS0R8RgPTU2k40P8IXV-26">
          <mxGeometry relative="1" as="geometry">
            <Array as="points">
              <mxPoint x="380" y="-130" />
              <mxPoint x="380" y="-130" />
            </Array>
          </mxGeometry>
        </mxCell>
        <mxCell id="zRS0R8RgPTU2k40P8IXV-52" style="edgeStyle=orthogonalEdgeStyle;rounded=0;orthogonalLoop=1;jettySize=auto;html=1;exitX=0.1;exitY=0.5;exitDx=0;exitDy=0;exitPerimeter=0;" edge="1" parent="1" source="zRS0R8RgPTU2k40P8IXV-51" target="zRS0R8RgPTU2k40P8IXV-30">
          <mxGeometry relative="1" as="geometry" />
        </mxCell>
        <mxCell id="zRS0R8RgPTU2k40P8IXV-51" value="" style="shape=curlyBracket;whiteSpace=wrap;html=1;rounded=1;flipH=1;labelPosition=right;verticalLabelPosition=middle;align=left;verticalAlign=middle;size=0.5;" vertex="1" parent="1">
          <mxGeometry x="-60" y="-260" width="220" height="350" as="geometry" />
        </mxCell>
        <mxCell id="zRS0R8RgPTU2k40P8IXV-53" value="firewall&lt;br&gt;" style="shape=ext;double=1;rounded=1;whiteSpace=wrap;html=1;verticalAlign=middle;fillColor=#fff2cc;strokeColor=#d6b656;" vertex="1" parent="1">
          <mxGeometry x="330" y="-90" width="120" height="40" as="geometry" />
        </mxCell>
        <mxCell id="zRS0R8RgPTU2k40P8IXV-54" value="File server&lt;br&gt;" style="shape=ext;double=1;rounded=1;whiteSpace=wrap;html=1;fillColor=#fff2cc;strokeColor=#d6b656;" vertex="1" parent="1">
          <mxGeometry x="260" y="50" width="120" height="30" as="geometry" />
        </mxCell>
        <mxCell id="zRS0R8RgPTU2k40P8IXV-55" value="AD server&lt;br&gt;" style="shape=ext;double=1;rounded=1;whiteSpace=wrap;html=1;fillColor=#fff2cc;strokeColor=#d6b656;" vertex="1" parent="1">
          <mxGeometry x="100" y="50" width="120" height="30" as="geometry" />
        </mxCell>
        <mxCell id="zRS0R8RgPTU2k40P8IXV-56" value="Switch&lt;br&gt;" style="shape=ext;double=1;rounded=1;whiteSpace=wrap;html=1;fillColor=#fff2cc;strokeColor=#d6b656;" vertex="1" parent="1">
          <mxGeometry x="152" y="-160" width="120" height="30" as="geometry" />
        </mxCell>
        <mxCell id="zRS0R8RgPTU2k40P8IXV-57" value="Printer" style="shape=ext;double=1;rounded=1;whiteSpace=wrap;html=1;fillColor=#fff2cc;strokeColor=#d6b656;" vertex="1" parent="1">
          <mxGeometry x="270" y="-250" width="80" height="40" as="geometry" />
        </mxCell>
        <mxCell id="zRS0R8RgPTU2k40P8IXV-59" value="Workstations" style="shape=ext;double=1;rounded=1;whiteSpace=wrap;html=1;fillColor=#fff2cc;strokeColor=#d6b656;" vertex="1" parent="1">
          <mxGeometry x="-80" y="-130" width="120" height="80" as="geometry" />
        </mxCell>
      </root>
    </mxGraphModel>
  </diagram>
</mxfile>
